<?xml version="1.0" encoding="iso-8859-1"?>
<!-- Generator: Adobe Illustrator 19.0.0, SVG Export Plug-In . SVG Version: 6.00 Build 0)  -->
<svg version="1.1" id="Capa_1" xmlns="http://www.w3.org/2000/svg" xmlns:xlink="http://www.w3.org/1999/xlink" x="0px" y="0px"
	 viewBox="0 0 512 512" style="enable-background:new 0 0 512 512;" xml:space="preserve">
<path style="fill:#2488FF;" d="M256,0C164.139,0,89.404,74.735,89.404,166.596c0,35.759,11.152,69.826,32.257,98.547L256,464.571
	l134.339-199.428c21.104-28.721,32.257-62.789,32.257-98.547C422.596,74.735,347.861,0,256,0z"/>
<path style="fill:#005ECE;" d="M256,464.571l134.339-199.428c21.104-28.721,32.257-62.789,32.257-98.547
	C422.596,74.735,347.861,0,256,0V464.571z"/>
<rect x="135.293" y="481.823" style="fill:#FFDA44;" width="241.415" height="30.177"/>
<rect x="256" y="481.823" style="fill:#FFCD00;" width="120.707" height="30.177"/>
<path style="fill:#FFFFFF;" d="M256,81.419c-45.857,0-83.164,37.307-83.164,83.163s37.308,83.164,83.164,83.164
	s83.164-37.308,83.164-83.164S301.857,81.419,256,81.419z"/>
<path style="fill:#D8D7DA;" d="M256,247.747c45.857,0,83.164-37.308,83.164-83.164S301.857,81.419,256,81.419V247.747z"/>
<g>
</g>
<g>
</g>
<g>
</g>
<g>
</g>
<g>
</g>
<g>
</g>
<g>
</g>
<g>
</g>
<g>
</g>
<g>
</g>
<g>
</g>
<g>
</g>
<g>
</g>
<g>
</g>
<g>
</g>
</svg>
