<svg height="475pt" viewBox="0 -1 475.00782 475" width="475pt" xmlns="http://www.w3.org/2000/svg"><path d="m467.5 434.511719v30h-459v-30zm0 0" fill="#00efd1"/><path d="m467.5 120.511719v28h-459v-28zm0 0" fill="#fedb41"/><path d="m432 148.511719v286h-275.421875v-56c0-20.984375-17.011719-38-38-38-20.984375 0-38 17.015625-38 38v56h-36.578125v-286zm-32.671875 245.191406v-40.511719h-42.886719v40.511719zm0-84.339844v-40.511719h-42.886719v40.511719zm0-84.339843v-40.511719h-42.886719v40.511719zm-69 168.679687v-40.511719h-42.886719v40.511719zm0-84.339844v-40.511719h-42.886719v40.511719zm0-84.339843v-40.511719h-42.886719v40.511719zm-69.367187 168.679687v-40.511719h-42.890626v40.511719zm0-84.339844v-40.511719h-42.890626v40.511719zm0-84.339843v-40.511719h-42.890626v40.511719zm-69.371094 84.339843v-40.511719h-42.890625v40.511719zm0-84.339843v-40.511719h-42.890625v40.511719zm-69.359375 84.339843v-40.511719h-42.902344v40.511719zm0-84.339843v-40.511719h-42.902344v40.511719zm0 0" fill="#00acea"/><path d="m422.5 119.511719v1h-369v-29h369zm0 0" fill="#f4b844"/><path d="m356.441406 353.191406h42.886719v40.511719h-42.886719zm0 0" fill="#00efd1"/><path d="m356.441406 268.851562h42.886719v40.511719h-42.886719zm0 0" fill="#00efd1"/><path d="m356.441406 184.511719h42.886719v40.511719h-42.886719zm0 0" fill="#00efd1"/><path d="m391.578125 63.511719v28h-299v-28zm0 0" fill="#fedb41"/><path d="m356.578125 35.511719v28h-229v-28zm0 0" fill="#f4b844"/><path d="m287.441406 353.191406h42.886719v40.511719h-42.886719zm0 0" fill="#00efd1"/><path d="m287.441406 268.851562h42.886719v40.511719h-42.886719zm0 0" fill="#00efd1"/><path d="m287.441406 184.511719h42.886719v40.511719h-42.886719zm0 0" fill="#00efd1"/><path d="m162.578125 7.511719h159v28h-159zm0 0" fill="#fedb41"/><path d="m218.070312 353.191406h42.890626v40.511719h-42.890626zm0 0" fill="#00efd1"/><path d="m218.070312 268.851562h42.890626v40.511719h-42.890626zm0 0" fill="#00efd1"/><path d="m218.070312 184.511719h42.890626v40.511719h-42.890626zm0 0" fill="#00efd1"/><path d="m148.699219 268.851562h42.890625v40.511719h-42.890625zm0 0" fill="#00efd1"/><path d="m148.699219 184.511719h42.890625v40.511719h-42.890625zm0 0" fill="#00efd1"/><path d="m156.578125 433.511719v1h-76v-56c0-20.984375 17.015625-38 38-38 20.988281 0 38 17.015625 38 38zm0 0" fill="#fedb41"/><path d="m79.328125 268.851562h42.902344v40.511719h-42.902344zm0 0" fill="#00efd1"/><path d="m79.328125 184.511719h42.902344v40.511719h-42.902344zm0 0" fill="#00efd1"/><g fill="#083863"><path d="m467.5 113.011719h-37.5v-21.5c.09375-2.015625-.664062-3.980469-2.09375-5.40625-1.425781-1.425781-3.390625-2.1875-5.40625-2.09375h-22.5v-20.5c0-4.417969-4-7.5-8.421875-7.5h-26.578125v-20.5c0-4.417969-4-7.5-8.421875-7.5h-26.578125v-20.5c0-4.417969-4-7.5000002-8.421875-7.5000002h-159c-2.023437-.0976563-3.996094.6601562-5.4375 2.0859372-1.4375 1.425782-2.214844 3.390625-2.140625 5.414063v20.5h-27.421875c-2.023437-.097657-3.996094.660156-5.4375 2.085937-1.4375 1.425782-2.214844 3.390625-2.140625 5.414063v20.5h-27.421875c-2.023437-.097657-3.996094.660156-5.4375 2.085937-1.4375 1.425782-2.214844 3.390625-2.140625 5.414063v20.5h-31.5c-4.417969 0-8.5 3.082031-8.5 7.5v21.5h-36.5c-4.417969 0-8.5 3.082031-8.5 7.5v28c.195312 4.613281 3.886719 8.304687 8.5 8.5h27.5v270h-27.5c-4.417969 0-8.5 3.082031-8.5 7.5v30c.195312 4.613281 3.886719 8.304687 8.5 8.5h459c4.417969 0 7.5-4.082031 7.5-8.5v-30c.09375-2.015625-.664062-3.980469-2.09375-5.40625-1.425781-1.425781-3.390625-2.1875-5.40625-2.09375h-27.5v-270h27.5c4.417969 0 7.5-4.082031 7.5-8.5v-28c.09375-2.015625-.664062-3.980469-2.09375-5.40625-1.425781-1.425781-3.390625-2.1875-5.40625-2.09375zm-296.5-97h143v12h-143zm-35 28h213v12h-213zm-35 28h283v12h-283zm-40 28h353v13h-353zm398 343v14h-443v-14zm-307.71875-97c-8.550781-8.648438-20.214844-13.511719-32.382812-13.5-25.371094.035156-45.917969 20.625-45.898438 46v48.5h-21v-270h372v270h-259v-48.5c-.0625-12.226563-5-23.925781-13.71875-32.5zm-2.28125 32.5v48.5h-60v-48.5c0-16.566407 13.429688-30 30-30s30 13.433593 30 30zm310-237.5h-443v-12h443zm0 0"/><path d="m122 177.011719h-43c-4.417969 0-8 3.582031-8 8v41c0 4.417969 3.582031 8 8 8h43c4.417969 0 8-3.582031 8-8v-41c0-4.417969-3.582031-8-8-8zm-8 40h-27v-24h27zm0 0"/><path d="m149 234.011719h43c4.417969 0 8-3.582031 8-8v-41c0-4.417969-3.582031-8-8-8h-43c-4.417969 0-8 3.582031-8 8v41c0 4.417969 3.582031 8 8 8zm8-41h27v24h-27zm0 0"/><path d="m218 234.011719h43c4.417969 0 8-3.582031 8-8v-41c0-4.417969-3.582031-8-8-8h-43c-4.417969 0-8 3.582031-8 8v41c0 4.417969 3.582031 8 8 8zm8-41h27v24h-27zm0 0"/><path d="m287 234.011719h43c4.417969 0 8-3.582031 8-8v-41c0-4.417969-3.582031-8-8-8h-43c-4.417969 0-8 3.582031-8 8v41c0 4.417969 3.582031 8 8 8zm8-41h27v24h-27zm0 0"/><path d="m122 261.011719h-43c-4.417969 0-8 3.582031-8 8v41c0 4.417969 3.582031 8 8 8h43c4.417969 0 8-3.582031 8-8v-41c0-4.417969-3.582031-8-8-8zm-8 40h-27v-24h27zm0 0"/><path d="m200 310.011719v-41c0-4.417969-3.582031-8-8-8h-43c-4.417969 0-8 3.582031-8 8v41c0 4.417969 3.582031 8 8 8h43c4.417969 0 8-3.582031 8-8zm-16-9h-27v-24h27zm0 0"/><path d="m218 318.011719h43c4.417969 0 8-3.582031 8-8v-41c0-4.417969-3.582031-8-8-8h-43c-4.417969 0-8 3.582031-8 8v41c0 4.417969 3.582031 8 8 8zm8-41h27v24h-27zm0 0"/><path d="m287 318.011719h43c4.417969 0 8-3.582031 8-8v-41c0-4.417969-3.582031-8-8-8h-43c-4.417969 0-8 3.582031-8 8v41c0 4.417969 3.582031 8 8 8zm8-41h27v24h-27zm0 0"/><path d="m218 402.011719h43c4.417969 0 8-3.582031 8-8v-41c0-4.417969-3.582031-8-8-8h-43c-4.417969 0-8 3.582031-8 8v41c0 4.417969 3.582031 8 8 8zm8-41h27v25h-27zm0 0"/><path d="m287 402.011719h43c4.417969 0 8-3.582031 8-8v-41c0-4.417969-3.582031-8-8-8h-43c-4.417969 0-8 3.582031-8 8v41c0 4.417969 3.582031 8 8 8zm8-41h27v25h-27zm0 0"/><path d="m356 234.011719h43c4.417969 0 8-3.582031 8-8v-41c0-4.417969-3.582031-8-8-8h-43c-4.417969 0-8 3.582031-8 8v41c0 4.417969 3.582031 8 8 8zm8-41h27v24h-27zm0 0"/><path d="m356 318.011719h43c4.417969 0 8-3.582031 8-8v-41c0-4.417969-3.582031-8-8-8h-43c-4.417969 0-8 3.582031-8 8v41c0 4.417969 3.582031 8 8 8zm8-41h27v24h-27zm0 0"/><path d="m356 402.011719h43c4.417969 0 8-3.582031 8-8v-41c0-4.417969-3.582031-8-8-8h-43c-4.417969 0-8 3.582031-8 8v41c0 4.417969 3.582031 8 8 8zm8-41h27v25h-27zm0 0"/></g></svg>